<?xml version="1.0" encoding="UTF-8"?>
<svg width="124.09mm" height="124.09mm" version="1.1" viewBox="0 0 124.09 124.09" xmlns="http://www.w3.org/2000/svg">
 <g transform="translate(-25.745 -12.172)" shape-rendering="auto">
  <path d="m88.436 39.914c-18.283 0-33.265 14.982-33.265 33.265 0 18.283 14.982 33.27 33.265 33.27 18.283 0 33.265-14.987 33.265-33.27 0-18.283-14.982-33.265-33.265-33.265zm0 15.005c10.175 0 18.261 8.0857 18.261 18.261 0 10.175-8.0858 18.265-18.261 18.265-10.175 0-18.261-8.0906-18.261-18.265 0-10.175 8.0858-18.261 18.261-18.261z" color="#000000" color-rendering="auto" dominant-baseline="auto" fill="#fff" image-rendering="auto" solid-color="#000000" style="font-feature-settings:normal;font-variant-alternates:normal;font-variant-caps:normal;font-variant-ligatures:normal;font-variant-numeric:normal;font-variant-position:normal;isolation:auto;mix-blend-mode:normal;paint-order:normal;shape-padding:0;text-decoration-color:#000000;text-decoration-line:none;text-decoration-style:solid;text-indent:0;text-orientation:mixed;text-transform:none;white-space:normal"/>
  <path transform="matrix(.26458 0 0 .26458 25.745 12.172)" d="m234.08 20.787c-117.61 0-214.07 96.467-214.07 214.08 3e-6 117.61 96.463 214.1 214.07 214.1 6.0369 0 12.014-0.26931 17.93-0.76758-6.1302-9.4675-11.156-19.684-14.914-30.451-1.0043 0.0165-2.0076 0.0371-3.0156 0.0371-100.57 0-182.89-82.345-182.89-182.92 0-100.58 82.317-182.9 182.89-182.9 100.58 0 182.9 82.325 182.9 182.9 0 0.84651-0.0216 1.6874-0.0332 2.5312 10.831 3.7307 21.054 8.7274 30.494 14.816 0.46632-5.7256 0.71289-11.509 0.71289-17.348 0-117.61-96.465-214.08-214.07-214.08z" color="#000000" color-rendering="auto" dominant-baseline="auto" fill="#00bfff" image-rendering="auto" solid-color="#000000" style="font-feature-settings:normal;font-variant-alternates:normal;font-variant-caps:normal;font-variant-ligatures:normal;font-variant-numeric:normal;font-variant-position:normal;isolation:auto;mix-blend-mode:normal;paint-order:normal;shape-padding:0;text-decoration-color:#000000;text-decoration-line:none;text-decoration-style:solid;text-indent:0;text-orientation:mixed;text-transform:none;white-space:normal"/>
  <path transform="matrix(.26458 0 0 .26458 25.745 12.172)" d="m408.09 244c-2.4738 45.237-22.625 89.451-59.701 121.65-30.557 26.535-67.588 40.546-104.94 42.475 5.6397 18.48 15.266 35.366 27.928 49.561 40.021-6.5295 78.753-23.843 111.52-52.295 41.161-35.742 66.254-83.266 74.631-133.3-14.044-12.652-30.835-22.37-49.439-28.082z" color="#000000" color-rendering="auto" dominant-baseline="auto" fill="#fff" image-rendering="auto" solid-color="#000000" style="font-feature-settings:normal;font-variant-alternates:normal;font-variant-caps:normal;font-variant-ligatures:normal;font-variant-numeric:normal;font-variant-position:normal;isolation:auto;mix-blend-mode:normal;paint-order:normal;shape-padding:0;text-decoration-color:#000000;text-decoration-line:none;text-decoration-style:solid;text-indent:0;text-orientation:mixed;text-transform:none;white-space:normal"/>
 </g>
</svg>
